HIERARCHY
ROOT Hips
{
 OFFSET 0.000000 0.000000 0.000000
 CHANNELS 6 Xposition Yposition Zposition Yrotation Xrotation Zrotation
 JOINT Chest
 {
  OFFSET 0.000000 9.585900 0.002600
  CHANNELS 3 Yrotation Xrotation Zrotation
  JOINT Chest2
  {
   OFFSET 0.000000 9.601200 -0.005300
   CHANNELS 3 Yrotation Xrotation Zrotation
   JOINT Chest3
   {
    OFFSET 0.000000 9.561800 0.000000
    CHANNELS 3 Yrotation Xrotation Zrotation
    JOINT Chest4
    {
     OFFSET 0.000000 9.552100 0.000000
     CHANNELS 3 Yrotation Xrotation Zrotation
     JOINT Neck
     {
      OFFSET 0.000000 14.453000 0.000000
      CHANNELS 3 Yrotation Xrotation Zrotation
      JOINT Head
      {
       OFFSET 0.000000 8.936500 -0.011300
       CHANNELS 3 Yrotation Xrotation Zrotation
       End Site
       {
        OFFSET 0.000000 17.073600 -0.006000
       }
      }
     }
     JOINT RightCollar
     {
      OFFSET -2.921100 9.558500 0.000000
      CHANNELS 3 Yrotation Xrotation Zrotation
      JOINT RightShoulder
      {
       OFFSET -13.519700 0.000000 0.000000
       CHANNELS 3 Yrotation Xrotation Zrotation
       JOINT RightElbow
       {
        OFFSET 0.000000 -29.696600 0.000000
        CHANNELS 3 Yrotation Xrotation Zrotation
        JOINT RightWrist
        {
         OFFSET 0.000000 -24.004700 0.000000
         CHANNELS 3 Yrotation Xrotation Zrotation
         End Site
         {
          OFFSET 0.000000 -17.728500 0.000000
         }
        }
       }
      }
     }
     JOINT LeftCollar
     {
      OFFSET 2.921100 9.558500 0.000000
      CHANNELS 3 Yrotation Xrotation Zrotation
      JOINT LeftShoulder
      {
       OFFSET 13.519700 0.000000 0.000000
       CHANNELS 3 Yrotation Xrotation Zrotation
       JOINT LeftElbow
       {
        OFFSET 0.000000 -29.696600 0.000000
        CHANNELS 3 Yrotation Xrotation Zrotation
        JOINT LeftWrist
        {
         OFFSET 0.000000 -24.004700 0.000000
         CHANNELS 3 Yrotation Xrotation Zrotation
         End Site
         {
          OFFSET 0.000000 -17.728500 0.000000
         }
        }
       }
      }
     }
    }
   }
  }
 }
 JOINT RightHip
 {
  OFFSET -7.771700 -0.012900 -0.001300
  CHANNELS 3 Yrotation Xrotation Zrotation
  JOINT RightKnee
  {
   OFFSET 0.000000 -40.869800 0.001200
   CHANNELS 3 Yrotation Xrotation Zrotation
   JOINT RightAnkle
   {
    OFFSET 0.000000 -39.717900 0.002100
    CHANNELS 3 Yrotation Xrotation Zrotation
    JOINT RightToe
    {
     OFFSET 0.000000 -4.965400 11.033500
     CHANNELS 3 Yrotation Xrotation Zrotation
     End Site
     {
      OFFSET 0.000000 -1.423100 5.872300
     }
    }
   }
  }
 }
 JOINT LeftHip
 {
  OFFSET 7.771700 -0.012900 -0.001300
  CHANNELS 3 Yrotation Xrotation Zrotation
  JOINT LeftKnee
  {
   OFFSET 0.000000 -40.869800 0.001200
   CHANNELS 3 Yrotation Xrotation Zrotation
   JOINT LeftAnkle
   {
    OFFSET 0.000000 -39.717900 0.002100
    CHANNELS 3 Yrotation Xrotation Zrotation
    JOINT LeftToe
    {
     OFFSET 0.000000 -4.965400 11.033500
     CHANNELS 3 Yrotation Xrotation Zrotation
     End Site
     {
      OFFSET 0.000000 -1.423100 5.872300
     }
    }
   }
  }
 }
}
MOTION
Frames: 8
Frame Time: 0.008333
0.000000 85.388000 0.000000 0.000000 -5.767877 0.000000 0.000000 11.653817 0.000000 0.000000 -5.885947 0.000000 0.000000 -0.000000 0.000000 0.000000 -0.000000 0.000000 0.000000 12.528835 0.000000 0.000000 0.711642 0.000000 0.000000 -0.000000 0.000000 0.000000 0.000000 -90.000000 0.000000 -2.309062 0.000000 0.000000 2.309062 0.000000 0.000000 -0.000000 0.000000 0.000000 -0.000000 90.000000 0.000000 -2.309062 0.000000 0.000000 2.309062 0.000000 0.000000 8.520406 0.000000 0.000000 1.905762 0.000000 -0.000000 -4.658285 0.000000 0.000000 -0.000000 0.000000 0.000000 8.520406 0.000000 0.000000 1.905762 0.000000 -0.000000 -4.658285 0.000000 0.000000 -0.000000 0.000000
-16.599967 55.339029 14.367008 -178.556777 -16.232345 -1.745497 0.247517 16.043679 0.594156 0.020073 1.577113 0.077762 0.042355 2.641377 0.128995 0.258094 14.238745 0.737798 1.111928 12.739508 -5.905195 2.562618 -12.214402 -6.629123 1.261981 -0.518717 2.695138 3.244316 -4.931280 -9.542116 -86.028444 -66.450219 117.447039 -12.771432 -16.281892 -6.605699 -6.997638 -1.750199 1.588976 -0.245252 -12.889483 9.894408 64.840071 -61.080964 -109.011783 4.738460 -17.723358 6.338823 -0.795704 -58.665612 11.975023 -93.038567 87.460041 -97.558179 -10.685140 -22.247905 14.764527 0.132881 -0.103761 0.022279 10.911821 -55.090129 -6.496237 110.823144 77.211188 108.114799 -7.609545 -23.718455 1.926840 0.083676 0.248117 0.034410
-16.599517 55.339419 14.367197 -178.552607 -16.232160 -1.754163 0.266124 16.039251 0.604166 0.014402 1.579843 0.078893 0.035876 2.642166 0.130171 0.269993 14.238749 0.734682 1.100587 12.737472 -5.897600 2.559263 -12.216018 -6.625853 1.240081 -0.521512 2.702483 3.257044 -4.934248 -9.552135 -86.007587 -66.452647 117.425366 -12.770401 -16.279458 -6.601926 -7.015210 -1.753107 1.601596 -0.246679 -12.885839 9.893009 64.837850 -61.082793 -109.007114 4.741111 -17.722962 6.332976 -0.814762 -58.663066 11.982627 -92.998361 87.463403 -97.532003 -10.574558 -22.254212 14.752947 0.078442 -0.118394 0.013119 10.897663 -55.092478 -6.481910 110.810440 77.207103 108.102702 -7.613110 -23.717088 1.924350 0.082679 0.249530 0.035822
-16.600447 55.340011 14.367192 -178.551091 -16.234235 -1.755963 0.267348 16.040456 0.605757 0.021267 1.577321 0.077284 0.036835 2.642376 0.129935 0.275136 14.238851 0.733480 1.092819 12.737657 -5.891595 2.562589 -12.228175 -6.625710 1.222629 -0.526637 2.705995 3.268545 -4.933834 -9.559364 -85.990571 -66.447946 117.402157 -12.762476 -16.270728 -6.598677 -7.029868 -1.752685 1.612645 -0.244825 -12.886902 9.892296 64.829005 -61.081887 -108.998154 4.743609 -17.723455 6.327803 -0.819170 -58.658448 11.985870 -92.920497 87.461521 -97.457097 -10.550860 -22.255529 14.752832 0.064120 -0.120173 0.011510 10.893397 -55.090903 -6.477953 110.802843 77.204508 108.094209 -7.615027 -23.715024 1.924863 0.086030 0.250238 0.036272
-16.602310 55.340751 14.367247 -178.550724 -16.236975 -1.754295 0.268083 16.040949 0.600541 0.021663 1.577547 0.077198 0.035502 2.641684 0.128836 0.280110 14.240896 0.732297 1.093719 12.734842 -5.888605 2.560604 -12.228349 -6.620834 1.208450 -0.531521 2.707993 3.282867 -4.935522 -9.566382 -85.969893 -66.442211 117.376410 -12.753953 -16.261643 -6.595349 -7.028503 -1.753825 1.619194 -0.259069 -12.896130 9.899304 64.829650 -61.075493 -108.992551 4.746248 -17.718130 6.330348 -0.810839 -58.653627 11.978673 -92.825956 87.459433 -97.359767 -10.550279 -22.255816 14.757062 0.046829 -0.119320 0.008875 10.893124 -55.087704 -6.481141 110.794170 77.201028 108.083907 -7.612966 -23.712928 1.926505 0.087201 0.249850 0.034295
-16.604599 55.341663 14.367238 -178.557185 -16.241223 -1.750713 0.270055 16.043142 0.596822 0.021790 1.577776 0.077152 0.039299 2.642824 0.128466 0.280596 14.241503 0.733502 1.094805 12.729171 -5.888304 2.561751 -12.226379 -6.620784 1.198634 -0.538297 2.705981 3.291265 -4.936797 -9.577743 -85.949158 -66.439024 117.361115 -12.755803 -16.261193 -6.598552 -7.027491 -1.763422 1.624546 -0.260363 -12.888293 9.895058 64.843320 -61.085800 -109.016262 4.753493 -17.714856 6.340870 -0.799832 -58.649040 11.973715 -92.734447 87.447896 -97.266468 -10.545448 -22.252774 14.757109 0.039578 -0.119951 0.009396 10.898230 -55.079711 -6.481620 110.776363 77.201490 108.064303 -7.613490 -23.716101 1.927125 0.079891 0.254708 0.034813
-16.606412 55.342552 14.367858 -178.559751 -16.242088 -1.753255 0.274650 16.042763 0.599612 0.022034 1.578002 0.077174 0.037692 2.643795 0.127515 0.283158 14.241884 0.735435 1.093570 12.726511 -5.888899 2.557922 -12.230322 -6.616914 1.189010 -0.544667 2.697824 3.292598 -4.939931 -9.582238 -85.917661 -66.441130 117.336486 -12.764225 -16.264599 -6.595377 -7.029106 -1.766363 1.626419 -0.264930 -12.893719 9.901009 64.844370 -61.078679 -109.015086 4.755885 -17.721953 6.315696 -0.801780 -58.647487 11.970947 -92.655278 87.446935 -97.189059 -10.496341 -22.251652 14.744440 0.023321 -0.126020 0.012751 10.896114 -55.077249 -6.476343 110.746995 77.196217 108.034094 -7.617519 -23.716246 1.926206 0.085479 0.260077 0.036468
-16.608836 55.343608 14.368145 -178.562949 -16.245601 -1.753686 0.279048 16.046068 0.599521 0.022172 1.578117 0.077073 0.034907 2.644167 0.127652 0.285779 14.241309 0.732827 1.094431 12.726099 -5.885093 2.557353 -12.239391 -6.615327 1.179646 -0.550165 2.690846 3.296414 -4.938823 -9.576888 -85.912379 -66.443910 117.333132 -12.749723 -16.252163 -6.594134 -7.030072 -1.768133 1.631679 -0.270389 -12.905759 9.915472 64.843345 -61.062499 -109.010941 4.756818 -17.727349 6.303981 -0.795859 -58.643601 11.959258 -92.619958 87.448817 -97.155688 -10.446328 -22.251950 14.733664 0.060017 -0.125591 0.020106 10.897391 -55.073612 -6.473236 110.752969 77.197874 108.035455 -7.612741 -23.712937 1.930155 0.080181 0.258579 0.036158
